<?xml version="1.0" encoding="utf-8"?>
<!-- Generator: Adobe Illustrator 16.0.4, SVG Export Plug-In . SVG Version: 6.00 Build 0)  -->
<!DOCTYPE svg PUBLIC "-//W3C//DTD SVG 1.1//EN" "http://www.w3.org/Graphics/SVG/1.1/DTD/svg11.dtd">
<svg version="1.1" id="Layer_1" xmlns="http://www.w3.org/2000/svg" xmlns:xlink="http://www.w3.org/1999/xlink" x="0px" y="0px"
	 width="476.976px" height="250.487px" viewBox="0 0 476.976 250.487" enable-background="new 0 0 476.976 250.487"
	 xml:space="preserve">
<g>
	<g>
		<g>
			<g>
				<g>
					<path fill="none" stroke="#043049" stroke-miterlimit="10" d="M302.232,141.997c-0.033-0.674-0.163-1.334-0.385-1.956
						c-0.683,0-1.349-0.019-1.999-0.056"/>
					<path fill="none" stroke="#043049" stroke-miterlimit="10" stroke-dasharray="4.03,4.03" d="M295.849,139.498
						c-35.62-6.865-15.747-76.466,0.899-76.466c13.09,0,17.17,49.81,14.279,92.31c-2.039,31.789-8.33,53.889-18.189,53.889
						c-7.365,0-18.196-12.133-25.062-45.197"/>
					<path fill="none" stroke="#043049" stroke-miterlimit="10" d="M267.378,162.065c-0.128-0.646-0.255-1.302-0.38-1.964
						c-0.653-0.24-1.302-0.393-1.941-0.46"/>
					<path fill="none" stroke="#043049" stroke-miterlimit="10" stroke-dasharray="4.0298,4.0298" d="M261.144,160.342
						c-3.782,1.874-6.4,7.192-5.706,14.719c2.551,25.16,22.1,43.18,36.891,43.18c17.85,0,29.41-25.5,32.639-61.029
						c4.59-47.939-3.57-104.378-24.139-104.378c-35.02,0-57.971,90.609-11.561,97.408c7.809,1.135,11.885-2.398,12.782-6.241"/>
				</g>
			</g>
			<g>
				<g>
					<path fill="none" stroke="#043049" stroke-miterlimit="10" d="M452.44,137.815c-0.201,0.758-0.424,1.402-0.655,1.886
						c0.673,0.213,1.325,0.338,1.956,0.385"/>
					<path fill="none" stroke="#043049" stroke-miterlimit="10" stroke-dasharray="3.8998,3.8998" d="M457.522,139.344
						c8.742-4.365,9.564-25.992-10.157-25.992c-7.075,0-14.136,4.72-16.208,13.164"/>
					<path fill="none" stroke="#043049" stroke-miterlimit="10" d="M430.784,128.431c-0.094,0.645-0.161,1.308-0.198,1.99
						c-0.581,0.352-1.163,0.672-1.753,0.963"/>
					<path fill="none" stroke="#043049" stroke-miterlimit="10" stroke-dasharray="3.3065,3.3065" d="M425.769,132.613
						c-1.505,0.476-3.098,0.804-4.847,1.02"/>
					<path fill="none" stroke="#043049" stroke-miterlimit="10" d="M419.272,133.801c-0.644,0.052-1.309,0.092-1.997,0.121
						c-0.124-0.679-0.262-1.332-0.412-1.958"/>
					<path fill="none" stroke="#043049" stroke-miterlimit="10" stroke-dasharray="3.7401,3.7401" d="M415.782,128.382
						c-2.876-7.712-7.854-10.27-11.087-10.27c-9.758,0-10.217,13.95-1.743,20.75"/>
					<path fill="none" stroke="#043049" stroke-miterlimit="10" d="M404.466,139.938c0.556,0.348,1.142,0.667,1.759,0.953
						c-0.021,0.658-0.049,1.325-0.083,1.999"/>
					<path fill="none" stroke="#043049" stroke-miterlimit="10" stroke-dasharray="3.9828,3.9828" d="M405.865,146.868
						c-1.3,15.024-5.58,31.763-10.52,31.763c-3.4,0-4.42-12.07-4.08-27.199c0.51-30.77,6.971-73.439,10.539-91.459
						c-1.359-4.42-11.219,1.7-13.43,10.54c-3.48,13.166-7.363,43.435-8.894,70.312c-1.646,1.548-3.396,2.955-5.127,4.095"/>
					<path fill="none" stroke="#043049" stroke-miterlimit="10" d="M372.656,145.952c-0.605,0.338-1.204,0.636-1.789,0.89
						c-0.102-0.677-0.222-1.334-0.36-1.968"/>
					<path fill="none" stroke="#043049" stroke-miterlimit="10" stroke-dasharray="4.1614,4.1614" d="M369.243,140.91
						c-1.535-3.43-3.963-5.461-7.386-5.119c-5.858,0.714-7.514,12.716-3.25,18.647"/>
					<path fill="none" stroke="#043049" stroke-miterlimit="10" d="M360.006,155.968c0.507,0.43,1.067,0.793,1.682,1.073
						c-0.108,0.668-0.22,1.325-0.334,1.972"/>
					<path fill="none" stroke="#043049" stroke-miterlimit="10" stroke-dasharray="4.1449,4.1449" d="M360.565,163.086
						c-2.168,10.248-5.127,16.904-8.569,16.904c-9.859,0-7.479-56.608,3.4-56.608c2.208,0,3.636,2.86,4.403,5.526"/>
					<path fill="none" stroke="#043049" stroke-miterlimit="10" d="M360.271,130.917c0.151,0.832,0.225,1.538,0.225,1.984
						c0.679,0.283,1.322,0.448,1.925,0.51"/>
					<path fill="none" stroke="#043049" stroke-miterlimit="10" stroke-dasharray="4.0274,4.0274" d="M366.127,132.187
						c4.428-4.169,2.39-17.305-11.58-17.305c-26.35,0-30.26,75.819-4.25,75.819c11.37,0,18.317-15.554,20.316-30.189"/>
					<path fill="none" stroke="#043049" stroke-miterlimit="10" d="M370.855,158.521c0.071-0.667,0.132-1.331,0.182-1.99
						c0.595-0.242,1.201-0.521,1.816-0.833"/>
					<path fill="none" stroke="#043049" stroke-miterlimit="10" d="M377.414,152.854c0.526-0.388,1.056-0.797,1.584-1.228
						c-0.02,0.679-0.034,1.346-0.045,2"/>
					<path fill="none" stroke="#043049" stroke-miterlimit="10" stroke-dasharray="3.8807,3.8807" d="M378.946,157.508
						c0.357,27.245,9.444,31.492,16.06,31.492c13.215,0,21.889-21.919,22.867-42.469"/>
					<path fill="none" stroke="#043049" stroke-miterlimit="10" d="M417.942,144.592c0.005-0.214,0.01-0.428,0.013-0.641v-1.359
						c0.695-0.023,1.361-0.057,1.999-0.101"/>
					<path fill="none" stroke="#043049" stroke-miterlimit="10" stroke-dasharray="3.4884,3.4884" d="M423.423,142.123
						c1.996-0.299,3.655-0.721,5.082-1.241"/>
					<path fill="none" stroke="#043049" stroke-miterlimit="10" d="M430.112,140.213c0.628-0.297,1.209-0.615,1.755-0.953
						c0.193,0.632,0.403,1.266,0.628,1.898"/>
					<path fill="none" stroke="#043049" stroke-miterlimit="10" stroke-dasharray="3.8523,3.8523" d="M433.916,144.74
						c1.261,2.88,2.721,5.574,4.1,7.711c2.549,4.93,7.139,11.221,10.539,16.49c4.25,6.119,2.891,12.92-2.891,12.92
						c-6.923,0-11.34-12.953-12.369-25.495"/>
					<path fill="none" stroke="#043049" stroke-miterlimit="10" d="M433.164,154.447c-0.037-0.669-0.063-1.335-0.08-1.996
						c-0.697-0.153-1.358-0.207-1.984-0.172"/>
					<path fill="none" stroke="#043049" stroke-miterlimit="10" stroke-dasharray="3.9054,3.9054" d="M427.532,153.701
						c-3.168,2.624-4.602,8.525-4.138,14.9c0.85,10.539,7.48,22.1,20.57,22.1c11.73,0,23.799-15.641,16.66-27.199
						c-2.891-4.592-10.371-15.471-13.26-19.891c-8.33-12.07-4.93-22.27,0.85-22.27c5.317,0,5.645,8.833,4.642,14.555"/>
				</g>
			</g>
		</g>
		<g>
			<g opacity="0.3">
				<path fill="#AA575D" d="M34.387,150.639H23.976v40.688h-12.33V95.43H36.99c4.658,0,8.22,3.836,8.22,8.22v33.426
					c0,3.424-1.781,6.027-4.247,6.713c3.699,0.822,5.754,4.658,5.754,8.082v39.455H34.387V150.639z M23.976,138.309h8.904V107.76
					h-8.904V138.309z"/>
				<path fill="#AA575D" d="M84.551,191.326H52.768V95.43h30.824v12.33H65.098v26.439h13.014v12.33H65.098v32.467h19.453V191.326z"
					/>
				<path fill="#AA575D" d="M132.797,191.326v-51.785l-10.138,31.236h-10l-9.316-31.236v51.785h-12.74V95.43h12.33l14.658,47.947
					l15.206-47.947h12.329v95.896H132.797z"/>
				<path fill="#AA575D" d="M151.177,103.65c0-4.384,3.836-8.22,8.22-8.22h18.631c4.658,0,8.22,3.836,8.22,8.22v79.592
					c0,4.385-3.698,8.084-8.22,8.084h-18.631c-4.384,0-8.22-3.699-8.22-8.084V103.65z M173.918,107.76h-10.411v71.236h10.411V107.76
					z"/>
				<path fill="#AA575D" d="M203.032,107.76h-10.959V95.43h34.248v12.33h-10.959v83.566h-12.33V107.76z"/>
				<path fill="#AA575D" d="M264.155,191.326h-31.783V95.43h30.825v12.33h-18.494v26.439h13.014v12.33h-13.014v32.467h19.452
					V191.326z"/>
			</g>
			<g>
				<path fill="#FF7478" d="M38.389,146.637H27.978v40.688h-12.33V91.428h25.344c4.658,0,8.22,3.836,8.22,8.22v33.426
					c0,3.424-1.781,6.027-4.247,6.713c3.699,0.822,5.754,4.658,5.754,8.082v39.455H38.389V146.637z M27.978,134.307h8.904v-30.549
					h-8.904V134.307z"/>
				<path fill="#FF7478" d="M88.553,187.324H56.77V91.428h30.824v12.33H69.1v26.439h13.014v12.33H69.1v32.467h19.453V187.324z"/>
				<path fill="#FF7478" d="M136.799,187.324v-51.785l-10.138,31.236h-10l-9.316-31.236v51.785h-12.74V91.428h12.33l14.658,47.947
					l15.206-47.947h12.329v95.896H136.799z"/>
				<path fill="#FF7478" d="M155.179,99.648c0-4.384,3.836-8.22,8.22-8.22h18.631c4.658,0,8.22,3.836,8.22,8.22v79.592
					c0,4.385-3.698,8.084-8.22,8.084h-18.631c-4.384,0-8.22-3.699-8.22-8.084V99.648z M177.92,103.758h-10.411v71.236h10.411
					V103.758z"/>
				<path fill="#FF7478" d="M207.034,103.758h-10.959v-12.33h34.248v12.33h-10.959v83.566h-12.33V103.758z"/>
				<path fill="#FF7478" d="M268.157,187.324h-31.783V91.428h30.825v12.33h-18.494v26.439h13.014v12.33h-13.014v32.467h19.452
					V187.324z"/>
			</g>
			<g display="none">
				<path display="inline" fill="#FFAEB4" d="M17.018,92.798h23.562c4.658,0,7.261,3.425,7.261,7.261v32.604
					c0,2.875-1.507,5.479-4.246,6.165l-2.056-1.371c0,0,2.192-2.191,2.192-5.89v-30.001c0-2.603-2.192-4.658-4.521-4.658H21.539
					L17.018,92.798z M22.498,98.415l4.11,3.973v33.29h10.274c0.959,0,1.644-0.274,1.644-0.274l2.055,1.37
					c-1.507,2.055-4.384,3.014-6.575,3.014H22.498V98.415z M26.608,185.953l-4.11-4.109v-39.18l4.11,3.973V185.953z M45.239,147.869
					c0-4.246-2.603-6.986-7.534-6.986c2.739,0,6.438,0,6.438,0c2.603,0.41,5.205,3.014,5.205,6.986v38.084l-4.109-4.109V147.869z"/>
				<path display="inline" fill="#FFAEB4" d="M58.14,92.798h28.084v9.589l-5.617-5.479H62.661L58.14,92.798z M63.62,98.415
					l4.11,3.973v29.18h13.014v9.589l-5.616-5.479H63.62V98.415z M63.62,138.555l4.11,3.973v33.836h19.453v9.59l-5.48-5.479H63.62
					V138.555z"/>
				<path display="inline" fill="#FFAEB4" d="M103.099,98.278l-7.124-5.479h10.001l15.617,51.647v12.465L103.099,98.278z
					 M105.976,185.953l-4.11-4.109l-0.137-74.524l4.247,24.385V185.953z M125.977,164.445l-2.74-5.479l17.535-56.99l-3.425,26.987
					L125.977,164.445z M143.649,181.844V98.278l-5.479-5.479h9.589v93.155L143.649,181.844z"/>
				<path display="inline" fill="#FFAEB4" d="M184.77,101.155c0-2.329-1.918-4.247-4.247-4.247h-15.206
					c-1.918,0-3.15,0.411-3.699,0.959l-3.15-2.74c1.507-1.507,3.288-2.329,5.479-2.329h17.673c4.246,0,7.26,3.151,7.26,7.261v78.771
					c0,2.328-0.959,3.973-2.055,5.068l-3.15-3.15c0.273-0.273,1.096-0.959,1.096-3.287V101.155z M162.029,101.977
					c0-1.781,0.548-2.603,0.822-2.877l3.288,3.288v73.976h13.151l3.014,3.014c-0.685,0.686-1.233,1.098-2.192,1.098h-13.973
					c-2.192,0-4.11-1.918-4.11-4.111V101.977z"/>
				<path display="inline" fill="#FFAEB4" d="M197.445,92.798h31.508v9.589l-5.479-5.479h-21.919L197.445,92.798z M213.883,98.278
					l4.11,4.11v83.565l-4.11-4.109V98.278z"/>
				<path display="inline" fill="#FFAEB4" d="M237.745,92.798h28.084v9.589l-5.617-5.479h-17.946L237.745,92.798z M243.225,98.415
					l4.11,3.973v29.18h13.014v9.589l-5.616-5.479h-11.508V98.415z M243.225,138.555l4.11,3.973v33.836h19.453v9.59l-5.48-5.479
					h-18.083V138.555z"/>
			</g>
		</g>
		<g>
			<path fill="#043049" d="M303.831,49.83c-35.02,0-57.971,90.608-11.561,97.409c10.539,1.529,14.279-5.439,12.58-10.199
				c-43.689,0-22.609-77.01-5.1-77.01c13.09,0,17.17,49.81,14.279,92.309c-2.039,31.789-8.33,53.891-18.189,53.891
				c-7.65,0-19.039-13.09-25.84-49.131c-6.461-2.379-12.58,3.91-11.561,14.961c2.551,25.158,22.1,43.18,36.891,43.18
				c17.85,0,29.41-25.5,32.639-61.029C332.56,106.269,324.399,49.83,303.831,49.83z"/>
			<path fill="#043049" d="M450.368,140.607c-8.33-12.069-4.93-22.269,0.85-22.269c6.801,0,5.439,14.45,3.57,18.36
				c13.43,4.25,19.039-26.351-4.42-26.351c-8.102,0-16.184,6.188-16.779,17.069c-3.864,2.343-7.816,3.271-13.311,3.5
				c-2.211-12.07-8.67-15.81-12.58-15.81c-10.879,0-10.199,17.34,1.529,22.78c-0.51,16.15-5.27,37.738-10.879,37.738
				c-3.4,0-4.42-12.068-4.08-27.199c0.51-30.769,6.971-73.438,10.539-91.458c-1.359-4.42-11.219,1.7-13.43,10.54
				c-3.48,13.166-7.363,43.435-8.894,70.311c-2.773,2.609-5.843,4.816-8.614,6.018c-1.02-6.799-3.91-11.559-9.01-11.049
				c-6.971,0.85-7.99,17.68-0.17,21.25c-2.211,13.6-5.611,22.949-9.691,22.949c-9.859,0-7.479-56.609,3.4-56.609
				c3.57,0,5.1,7.48,5.1,9.52c10.201,4.25,12.24-18.02-5.949-18.02c-26.35,0-30.26,75.818-4.25,75.818
				c12.41,0,19.551-18.529,20.74-34.17c2.515-1.023,5.234-2.682,7.961-4.904c-0.941,32.531,8.943,37.375,16.008,37.375
				c13.77,0,22.609-23.801,22.949-45.049v-1.361c7.005-0.232,10.963-1.51,13.912-3.332c1.469,4.805,3.915,9.73,6.148,13.191
				c2.549,4.932,7.139,11.221,10.539,16.49c4.25,6.121,2.891,12.92-2.891,12.92c-7.648,0-12.238-15.809-12.58-29.41
				c-6.969-1.529-10.369,6.801-9.689,16.15c0.85,10.541,7.48,22.1,20.57,22.1c11.73,0,23.799-15.639,16.66-27.199
				C460.737,155.908,453.257,145.027,450.368,140.607z"/>
		</g>
	</g>
</g>
</svg>
